HIERARCHY
ROOT Hips
{
    OFFSET 0.000000 0.000000 0.000000
    CHANNELS 6 Xposition Yposition Zposition Zrotation Xrotation Yrotation
    JOINT Spine
    {
        OFFSET -0.000000 0.070167 0.000000
        CHANNELS 3 Zrotation Xrotation Yrotation
        JOINT Spine1
        {
            OFFSET -0.000000 0.166666 0.000000
            CHANNELS 3 Zrotation Xrotation Yrotation
            JOINT Neck
            {
                OFFSET -0.000000 0.183780 0.000000
                CHANNELS 3 Zrotation Xrotation Yrotation
                JOINT Head
                {
                    OFFSET -0.000000 0.132633 0.017114
                    CHANNELS 3 Zrotation Xrotation Yrotation
                    End Site
                    {
                        OFFSET -0.000000 0.171140 0.000000
                    }
                }
            }
            JOINT LeftShoulder
            {
                OFFSET 0.034466 0.144174 -0.004091
                CHANNELS 3 Zrotation Xrotation Yrotation
                JOINT LeftArm
                {
                    OFFSET 0.121044 0.000000 0.000000
                    CHANNELS 3 Zrotation Xrotation Yrotation
                    JOINT LeftForeArm
                    {
                        OFFSET 0.257070 0.000000 0.000000
                        CHANNELS 3 Zrotation Xrotation Yrotation
                        JOINT LeftHand
                        {
                            OFFSET 0.224060 0.000000 0.000000
                            CHANNELS 3 Zrotation Xrotation Yrotation
                            End Site
                            {
                                OFFSET 0.128355 0.000000 0.000000
                            }
                        }
                    }
                }
            }
            JOINT RightShoulder
            {
                OFFSET -0.033538 0.144174 -0.004091
                CHANNELS 3 Zrotation Xrotation Yrotation
                JOINT RightArm
                {
                    OFFSET -0.121044 0.000000 0.000000
                    CHANNELS 3 Zrotation Xrotation Yrotation
                    JOINT RightForeArm
                    {
                        OFFSET -0.257070 0.000000 0.000000
                        CHANNELS 3 Zrotation Xrotation Yrotation
                        JOINT RightHand
                        {
                            OFFSET -0.224060 0.000000 0.000000
                            CHANNELS 3 Zrotation Xrotation Yrotation
                            End Site
                            {
                                OFFSET -0.128355 0.000000 0.000000
                            }
                        }
                    }
                }
            }
        }
    }
    JOINT LeftUpLeg
    {
        OFFSET 0.085570 0.000000 0.000000
        CHANNELS 3 Zrotation Xrotation Yrotation
        JOINT LeftLeg
        {
            OFFSET -0.000000 -0.385526 0.000000
            CHANNELS 3 Zrotation Xrotation Yrotation
            JOINT LeftFoot
            {
                OFFSET -0.000000 -0.365921 0.000000
                CHANNELS 3 Zrotation Xrotation Yrotation
                JOINT LeftToeBase
                {
                    OFFSET -0.000000 -0.055620 0.128355
                    CHANNELS 3 Zrotation Xrotation Yrotation
                    End Site
                    {
                        OFFSET -0.000000 0.000000 0.034228
                    }
                }
            }
        }
    }
    JOINT RightUpLeg
    {
        OFFSET -0.085570 0.000000 0.000000
        CHANNELS 3 Zrotation Xrotation Yrotation
        JOINT RightLeg
        {
            OFFSET -0.000000 -0.385526 0.000000
            CHANNELS 3 Zrotation Xrotation Yrotation
            JOINT RightFoot
            {
                OFFSET -0.000000 -0.365921 0.000000
                CHANNELS 3 Zrotation Xrotation Yrotation
                JOINT RightToeBase
                {
                    OFFSET -0.000000 -0.055620 0.128355
                    CHANNELS 3 Zrotation Xrotation Yrotation
                    End Site
                    {
                        OFFSET -0.000000 0.000000 0.034228
                    }
                }
            }
        }
    }
}
MOTION
Frames:    9
Frame Time:    0.010000
0.238529    0.781219    0.089123    6.667362    -12.328676    28.337145    8.759230    3.718028    25.656078    -22.466516    6.193119    9.881117    -18.119709    10.361803    -20.257101    19.508587    14.767688    -29.784227    -3.783584    4.313321    -0.480090    -38.311321    28.670809    -28.542360    -4.546788    2.601974    -84.255707    -17.685162    0.038126    -9.947945    -14.563286    -9.772435    12.731586    5.144988    25.543699    68.765549    4.291384    -32.934513    55.278820    44.070435    -17.149145    45.728149    -5.839646    -11.118353    -27.651691    -0.259246    40.395611    -6.005722    1.306478    -8.813962    1.320354    0.000000    0.000000    0.000000    -8.256263    23.965197    -14.308079    4.741637    26.571146    20.088924    3.078187    -8.819106    -51.631344    0.000000    0.000000    0.000000    
0.237966    0.777720    0.091241    6.438415    -11.570677    30.985851    8.664297    3.748450    25.511652    -21.994923    6.788359    9.922208    -17.823273    11.173907    -20.838224    19.179403    13.408209    -30.126493    -3.507692    4.319203    -0.728662    -38.169872    28.082693    -27.489193    -5.429301    3.264003    -84.947235    -17.569668    -0.146493    -10.101058    -14.342533    -9.829519    12.477533    6.174397    25.005848    70.191002    4.154456    -32.045879    56.872395    45.541248    -15.579947    45.406609    -6.522346    -12.399667    -28.138193    1.175281    41.574917    -8.765061    1.422560    -9.661249    1.449671    0.000000    0.000000    0.000000    -7.743973    23.357628    -15.671411    5.040963    26.888477    19.782957    2.023652    -9.374116    -51.833538    0.000000    0.000000    0.000000    
0.238447    0.773742    0.095613    6.328294    -11.844357    33.340614    8.945420    4.189129    25.495829    -21.221807    7.819770    10.077229    -18.465359    10.912237    -20.998655    20.084423    14.005189    -30.713343    -3.186125    4.156645    -1.153575    -38.059052    27.580933    -26.321527    -6.225413    3.965770    -85.437325    -17.314968    -0.268774    -9.965379    -14.446579    -9.961870    12.175140    5.897995    25.285946    71.786285    3.314277    -32.059216    58.521873    45.980030    -14.934098    45.539543    -6.815944    -12.656468    -29.015383    2.122789    43.130451    -11.529154    2.168962    -11.266812    2.372184    0.000000    0.000000    0.000000    -7.058151    23.867882    -16.060795    5.855071    27.346556    18.572977    1.158613    -9.077366    -50.931854    0.000000    0.000000    0.000000    
0.235824    0.770477    0.094593    5.639696    -10.002670    36.278328    8.341002    3.734591    24.983234    -20.898901    7.528252    9.811084    -18.199835    11.443527    -21.438194    20.219824    13.404503    -31.109200    -2.639489    4.023334    -1.392643    -38.152721    26.965076    -25.352119    -7.009479    4.936951    -85.526390    -17.324781    -0.095955    -9.551755    -14.757461    -10.235072    11.839870    5.160546    26.047619    73.353294    1.700688    -31.875160    59.465149    47.293262    -12.302236    47.269196    -8.159836    -15.579654    -30.966101    2.690828    44.616806    -13.591280    2.213222    -10.867003    2.808379    0.000000    0.000000    0.000000    -6.779264    21.822220    -16.572411    7.127847    28.428717    16.441380    0.741552    -9.991547    -50.172066    0.000000    0.000000    0.000000    
0.235069    0.767072    0.096842    5.306234    -9.611031    38.793762    8.108846    3.916553    24.794836    -20.144299    7.784121    9.744456    -17.815765    12.016953    -21.863647    20.435780    12.931084    -31.505657    -2.094949    3.921472    -1.783588    -38.386776    26.186628    -24.384096    -7.604185    6.141162    -85.444046    -17.243536    0.484736    -9.038786    -14.874730    -10.182996    11.218599    2.557397    26.936621    75.175980    1.379978    -33.591656    61.641209    46.737328    -14.647535    46.857941    -8.903072    -16.516155    -32.640900    3.258207    45.849972    -15.700936    2.380568    -11.801076    4.037552    0.000000    0.000000    0.000000    -6.181389    21.570532    -16.675201    8.036183    28.848577    15.189544    1.000612    -11.126420    -49.921059    0.000000    0.000000    0.000000    
0.233893    0.764389    0.098595    4.859959    -8.997657    41.352917    7.701808    3.938400    24.512922    -19.349951    7.743169    9.583976    -17.316050    12.430845    -22.327040    20.453526    12.931721    -31.920181    -1.689024    3.916342    -2.124717    -38.506310    25.398071    -23.566603    -7.955013    7.318902    -85.216286    -17.122950    1.250510    -8.328120    -14.924806    -10.142204    10.624116    0.316839    27.883850    76.869102    0.511564    -34.627499    62.860180    46.979061    -15.115246    47.095844    -9.767856    -17.509670    -34.286221    4.068160    46.637016    -17.126799    2.539211    -12.363188    4.408896    0.000000    0.000000    0.000000    -5.512244    21.108700    -17.304102    8.353811    29.033182    15.227880    0.455768    -11.291482    -49.911507    0.000000    0.000000    0.000000    
0.233366    0.762137    0.100660    4.576928    -8.596107    43.685379    7.389908    4.073277    24.275328    -18.707254    7.832069    9.474396    -16.627312    12.915706    -22.786846    20.546177    12.673609    -32.263226    -1.196409    3.803725    -2.412043    -38.616974    24.561543    -22.772026    -8.075908    8.802180    -85.017090    -16.876984    2.543237    -7.619972    -14.827112    -10.199854    9.973993    -1.705350    28.760965    78.406906    0.307420    -35.525478    64.329803    46.103580    -17.056835    45.994865    -10.607791    -17.975103    -35.708271    5.155071    47.092339    -18.007967    2.510640    -13.089518    4.071711    0.000000    0.000000    0.000000    -4.866264    21.035551    -17.920834    8.255804    28.935202    15.631423    0.494711    -11.780714    -49.417194    0.000000    0.000000    0.000000    
0.232579    0.760471    0.102670    4.292638    -8.110146    45.898331    6.985445    4.114675    23.985958    -18.126011    7.892086    9.342657    -16.160954    13.325448    -23.170708    21.123417    12.618025    -32.715397    -0.711353    3.664196    -2.675551    -38.482208    24.401110    -22.003296    -7.703150    9.472508    -85.147957    -16.658672    3.453503    -7.069424    -14.652919    -10.003787    9.315773    -3.316741    29.201368    79.710800    -0.376131    -35.919559    65.076889    45.364899    -17.614525    45.698544    -11.353694    -18.481119    -37.529484    5.442743    47.364620    -17.845572    2.344240    -13.600384    3.462623    0.000000    0.000000    0.000000    -4.286312    20.876997    -18.593437    8.008262    28.772875    16.056116    0.345886    -12.097261    -48.843845    0.000000    0.000000    0.000000    
0.232260    0.759269    0.105017    4.065707    -7.777505    47.800922    6.790639    3.975674    23.857401    -17.653078    8.339338    9.331363    -15.348973    13.951996    -23.714268    21.324921    12.091124    -33.094009    -0.330816    3.671449    -3.091327    -38.064552    24.325132    -21.327271    -7.298903    9.710155    -85.387283    -16.611858    4.005196    -6.856582    -14.439093    -9.569529    8.856988    -4.493474    29.318731    80.423340    -1.327968    -36.021580    65.611389    44.336430    -17.943184    45.065243    -12.003816    -18.793526    -39.124035    5.674100    47.706490    -17.905758    2.165554    -13.965081    3.312431    0.000000    0.000000    0.000000    -3.711363    20.827301    -18.804165    7.757109    28.563507    16.165981    0.572728    -12.128114    -48.081387    0.000000    0.000000    0.000000    
